# xmcd CD database file
# Copyright (C) 1993-1998 Ti Kan
#
# Track frame offsets:
#	150
#	14080
#	29120
#	41492
#	59905
#	76930
#	86905
#	99207
#	110980
#	124517
#	136030
#	150955
#	165430
#
# Disc length: 2356 seconds
#
# Revision: 1
# Processed by: cddbd v1.4b41PL1 Copyright (c) Steve Scherf et al.
# Submitted via: NotifyCDPlayer(CDDB) 1.51
#
DISCID=a609320d
DTITLE=Brownie McGhee and Sonny Terry - Brownie McGhee and Sonny Terry Sing
DYEAR=1900
DGENRE=
TTITLE0=Better Day
TTITLE1=Confusion
TTITLE2=Dark Road
TTITLE3=John Henry
TTITLE4=Make a Little Money
TTITLE5=Old Jabo
TTITLE6=If You Lose Your Money
TTITLE7=Guitar Highway
TTITLE8=Heart in Sorrow
TTITLE9=Preachin' the Blues
TTITLE10=Can't Help Myself
TTITLE11=Best of Friends
TTITLE12=Boogie Baby
EXTD=
EXTT0=
EXTT1=
EXTT2=
EXTT3=
EXTT4=
EXTT5=
EXTT6=
EXTT7=
EXTT8=
EXTT9=
EXTT10=
EXTT11=
EXTT12=
PLAYORDER=
